<?xml version="1.0" encoding="UTF-8" standalone="no"?>
<!DOCTYPE svg PUBLIC "-//W3C//DTD SVG 1.1//EN" "http://www.w3.org/Graphics/SVG/1.1/DTD/svg11.dtd">
<svg width="100%" height="100%" viewBox="0 0 32 32" version="1.1" xmlns="http://www.w3.org/2000/svg" xmlns:xlink="http://www.w3.org/1999/xlink" xml:space="preserve" xmlns:serif="http://www.serif.com/" style="fill-rule:evenodd;clip-rule:evenodd;stroke-linejoin:round;stroke-miterlimit:1.5;">
    <path d="M22.984,13.235L25.27,13.235C27.442,13.235 29.206,14.998 29.206,17.171L29.206,25.044C29.206,27.217 27.442,28.981 25.27,28.981L6.73,28.981C4.558,28.981 2.794,27.217 2.794,25.044L2.794,17.171C2.794,14.998 4.558,13.235 6.73,13.235L9.007,13.235" style="fill:white;fill-opacity:0;stroke:white;stroke-width:3px;"/>
    <g transform="matrix(5.14732e-17,0.840622,-1,6.12323e-17,24.3953,2.04901)">
        <path d="M2.794,9.518L2.794,7.273L18.029,7.273L18.029,5.168L23.819,8.395L18.029,11.623L18.029,9.518L2.794,9.518Z" style="fill:white;stroke:white;stroke-width:1.08px;"/>
    </g>
</svg>
